<mxfile host="app.diagrams.net" modified="2024-03-14T10:47:59.412Z" agent="Mozilla/5.0 (Windows NT 10.0; Win64; x64) AppleWebKit/537.36 (KHTML, like Gecko) Chrome/121.0.0.0 Safari/537.36" etag="6fmgDd022dixVccE3Y7v" version="24.0.6" type="github">
  <diagram name="Trang-1" id="n_XNxpaAUneGnVfp8a41">
    <mxGraphModel dx="1169" dy="1221" grid="0" gridSize="10" guides="1" tooltips="1" connect="1" arrows="1" fold="1" page="0" pageScale="1" pageWidth="827" pageHeight="1169" math="0" shadow="0">
      <root>
        <mxCell id="0" />
        <mxCell id="1" parent="0" />
        <mxCell id="6h49l3aajYLReGwIFggb-7" value="" style="edgeStyle=none;curved=1;rounded=0;orthogonalLoop=1;jettySize=auto;html=1;fontSize=12;startSize=8;endSize=8;" edge="1" parent="1" source="6h49l3aajYLReGwIFggb-3" target="6h49l3aajYLReGwIFggb-6">
          <mxGeometry relative="1" as="geometry" />
        </mxCell>
        <mxCell id="6h49l3aajYLReGwIFggb-3" value="Server&lt;div&gt;- api&lt;/div&gt;&lt;div&gt;&lt;br&gt;&lt;/div&gt;" style="rounded=1;whiteSpace=wrap;html=1;" vertex="1" parent="1">
          <mxGeometry x="-100" y="-194" width="188" height="124" as="geometry" />
        </mxCell>
        <mxCell id="6h49l3aajYLReGwIFggb-4" style="edgeStyle=none;curved=1;rounded=0;orthogonalLoop=1;jettySize=auto;html=1;exitX=0.75;exitY=1;exitDx=0;exitDy=0;fontSize=12;startSize=8;endSize=8;" edge="1" parent="1" source="6h49l3aajYLReGwIFggb-3" target="6h49l3aajYLReGwIFggb-3">
          <mxGeometry relative="1" as="geometry" />
        </mxCell>
        <mxCell id="6h49l3aajYLReGwIFggb-5" style="edgeStyle=none;curved=1;rounded=0;orthogonalLoop=1;jettySize=auto;html=1;exitX=1;exitY=0.75;exitDx=0;exitDy=0;fontSize=12;startSize=8;endSize=8;" edge="1" parent="1" source="6h49l3aajYLReGwIFggb-3" target="6h49l3aajYLReGwIFggb-3">
          <mxGeometry relative="1" as="geometry" />
        </mxCell>
        <mxCell id="6h49l3aajYLReGwIFggb-6" value="Client&lt;div&gt;show menu games&lt;/div&gt;&lt;div&gt;&lt;br&gt;&lt;/div&gt;" style="rounded=1;whiteSpace=wrap;html=1;" vertex="1" parent="1">
          <mxGeometry x="198" y="-201" width="257" height="138" as="geometry" />
        </mxCell>
      </root>
    </mxGraphModel>
  </diagram>
</mxfile>
